<svg width="16" height="16" viewBox="0 0 16 16" xmlns="http://www.w3.org/2000/svg">
<path fill-rule="evenodd" clip-rule="evenodd" d="M8 0.75C5.1 0.75 2.75 3.1 2.75 6V9.3L1.4 11.6C1.15 12.05 1.47 12.6 1.98 12.6H14.02C14.53 12.6 14.85 12.05 14.6 11.6L13.25 9.3V6C13.25 3.1 10.9 0.75 8 0.75ZM8 2C10.2 2 12 3.8 12 6V9.5C12 9.6 12.03 9.7 12.08 9.8L13.1 11.35H2.9L3.92 9.8C3.97 9.7 4 9.6 4 9.5V6C4 3.8 5.8 2 8 2ZM5.75 13.5C5.75 14.75 6.75 15.75 8 15.75C9.25 15.75 10.25 14.75 10.25 13.5H9C9 14.05 8.55 14.5 8 14.5C7.45 14.5 7 14.05 7 13.5H5.75Z"/>
</svg>
