<svg xmlns="http://www.w3.org/2000/svg" width="24" height="24" viewBox="0 0 24 24"><path fill-rule="evenodd" d="M6.62 2.699c-.591.131-1.052.405-1.507.895-.304.33-.511.699-.641 1.148l-.092.318v13.88l.092.318c.15.518.341.836.747 1.245.565.569 1.028.785 1.849.859.314.028 2.128.038 5.412.029 4.916-.013 4.941-.014 5.246-.099a3.02 3.02 0 0 0 2.06-2.032c.067-.224.073-.583.084-5.52.011-4.648.005-5.299-.048-5.44-.048-.125-.668-.767-2.761-2.86-1.484-1.485-2.749-2.722-2.81-2.748-.169-.073-7.297-.066-7.631.007m6.42 3.233c0 1.689.011 1.786.251 2.267.187.375.643.825 1.029 1.014.498.246.673.266 2.331.266l1.47.001-.01 4.67-.011 4.67-.09.169a1.3 1.3 0 0 1-.566.546l-.184.085h-5.1c-3.995 0-5.136-.011-5.266-.051-.218-.066-.544-.362-.661-.6l-.093-.189V12c0-6.22.005-6.792.066-6.926.124-.272.428-.553.694-.64.044-.014 1.443-.028 3.11-.03l3.03-.004zm3.035 1.779c-.907.012-1.015-.012-1.184-.267-.087-.13-.091-.17-.091-.98v-.843l1.04 1.039 1.041 1.04zM8.78 11.757c-.361.088-.66.47-.66.843 0 .339.303.748.62.835.224.062 6.496.062 6.72 0a.9.9 0 0 0 .345-.23c.348-.347.366-.815.045-1.17-.286-.318 0-.294-3.67-.301-1.804-.004-3.334.006-3.4.023m-.099 3.527c-.307.124-.56.493-.561.819 0 .232.182.57.38.706.088.061.257.129.375.151.291.054 6.159.054 6.45 0 .118-.022.287-.09.375-.151.199-.136.38-.474.38-.709 0-.242-.181-.572-.393-.72l-.174-.12-3.366-.008c-2.158-.005-3.402.007-3.466.032"/></svg>