<svg xmlns="http://www.w3.org/2000/svg" width="24" height="24" viewBox="0 0 24 24"><path fill-rule="evenodd" d="M6.346 3.464c-.592.107-1.268.387-1.841.764-.393.257-1.041.917-1.324 1.346a4.96 4.96 0 0 0-.779 2.22c-.058.571-.055 5.519.002 6.054a4.43 4.43 0 0 0 2.279 3.408c.256.14.804.347 1.067.403l.13.027v2.705l.112.214c.162.31.408.455.771.455.243 0 .288-.013.466-.14.109-.077.977-.788 1.929-1.58l1.731-1.44 3.265-.023c2.94-.02 3.296-.029 3.566-.093 2.18-.516 3.657-2.169 3.878-4.338.055-.542.055-5.045 0-5.626-.185-1.954-1.449-3.551-3.32-4.193-.677-.232-.531-.227-6.313-.223-4.397.003-5.359.013-5.619.06M17.574 5.23c.545.154.914.378 1.367.83.336.335.432.46.587.765.338.668.332.6.332 3.835 0 2.83 0 2.841-.09 3.152a3.25 3.25 0 0 1-2.19 2.213c-.219.065-.543.073-3.72.093-3.114.02-3.495.029-3.62.088-.077.036-.689.524-1.36 1.085L7.66 18.31l-.021-.805c-.023-.881-.046-.986-.27-1.21-.18-.18-.347-.242-.729-.272-.445-.034-.76-.118-1.084-.288a2.76 2.76 0 0 1-1.343-1.637c-.068-.222-.073-.443-.073-3.258 0-3.438-.008-3.344.333-4.015.151-.298.256-.436.566-.75.537-.542 1.049-.81 1.741-.911.132-.02 2.544-.033 5.36-.029l5.12.006zM8.118 9.493c-.528.148-.856.572-.855 1.107.002 1.23 1.675 1.583 2.184.46a1.2 1.2 0 0 0-.004-.93c-.217-.49-.819-.779-1.325-.637m3.6 0c-.528.148-.856.572-.855 1.107.002 1.23 1.675 1.583 2.184.46a1.2 1.2 0 0 0-.004-.93c-.217-.49-.819-.779-1.325-.637m3.6 0c-.528.148-.856.572-.855 1.107.002 1.23 1.675 1.583 2.184.46a1.2 1.2 0 0 0-.004-.93c-.217-.49-.819-.779-1.325-.637"/></svg>